<svg width="79" height="78" viewBox="0 0 79 78" fill="none" xmlns="http://www.w3.org/2000/svg">
<path d="M73.9319 75.2137C71.5924 67.9196 66.9977 61.557 60.8101 57.043C54.6216 52.5291 47.1599 50.0967 39.5003 50.0967C31.8406 50.0967 24.3789 52.5291 18.1907 57.043C12.0027 61.557 7.40786 67.9196 5.06885 75.2137H73.9319Z" stroke="#84B372" stroke-width="3" stroke-linecap="round" stroke-linejoin="round"/>
<path d="M39.5 50.1425C52.5221 50.1425 63.0788 39.586 63.0788 26.5639C63.0788 13.5418 52.5221 2.98535 39.5 2.98535C26.4779 2.98535 15.9214 13.5418 15.9214 26.5639C15.9214 39.586 26.4779 50.1425 39.5 50.1425Z" stroke="#84B372" stroke-width="3" stroke-linecap="round" stroke-linejoin="round"/>
<path d="M47.1996 35.6865C47.1996 35.6865 45.2432 39.536 39.5004 39.536C33.7577 39.536 31.8013 35.6865 31.8013 35.6865" stroke="#84B372" stroke-width="3" stroke-linecap="round" stroke-linejoin="round"/>
<path d="M62.6514 22.0747C62.5985 22.0751 62.5461 22.0752 62.4937 22.0752C55.6399 22.0752 49.4867 19.0768 45.2739 14.3201C41.0613 19.0769 34.908 22.0754 28.0543 22.0754C24.0744 22.0754 20.3306 21.0643 17.0659 19.2849C20.1332 9.82507 29.0176 2.98535 39.4995 2.98535C50.9865 2.98535 60.5549 11.1997 62.6514 22.0747Z" stroke="#84B372" stroke-width="3" stroke-linecap="round" stroke-linejoin="round"/>
</svg>
