<svg width="79" height="78" viewBox="0 0 79 78" fill="none" xmlns="http://www.w3.org/2000/svg">
<path d="M70.208 41.5819C70.208 60.044 55.2413 75.0106 36.7792 75.0106C18.3171 75.0106 3.35059 60.044 3.35059 41.5819C3.35059 23.1198 18.3171 8.15332 36.7792 8.15332" stroke="#84B372" stroke-width="3" stroke-linecap="round" stroke-linejoin="round"/>
<path d="M3.35059 41.582H41.922" stroke="#84B372" stroke-width="3" stroke-linecap="round" stroke-linejoin="round"/>
<path d="M36.7795 8.15332C29.0566 17.6504 24.5539 29.3573 23.9224 41.5819C24.5539 53.8064 29.0566 65.5135 36.7795 75.0106C42.8597 67.5337 46.9439 58.6868 48.7144 49.2961" stroke="#84B372" stroke-width="3" stroke-linecap="round" stroke-linejoin="round"/>
<path d="M41.7523 22.1222C39.7971 21.7821 39.7971 18.9753 41.7523 18.6352C48.8356 17.4029 54.4693 12.0078 56.0068 4.98436L56.1246 4.446C56.5475 2.51365 59.2992 2.50162 59.7388 4.43021L59.882 5.0576C61.4765 12.0478 67.1115 17.3974 74.1755 18.6263C76.1405 18.9682 76.1405 21.7892 74.1755 22.1311C67.1115 23.36 61.4765 28.7096 59.882 35.6998L59.7388 36.3272C59.2992 38.2558 56.5475 38.2438 56.1246 36.3114L56.0068 35.7731C54.4693 28.7497 48.8356 23.3545 41.7523 22.1222Z" stroke="#84B372" stroke-width="3" stroke-linecap="round" stroke-linejoin="round"/>
</svg>
