<svg width="39" height="38" viewBox="0 0 39 38" fill="none" xmlns="http://www.w3.org/2000/svg">
<path d="M1.59229 19C1.59229 9.05887 9.65116 1 19.5923 1V1C29.5334 1 37.5923 9.05887 37.5923 19V19C37.5923 28.9411 29.5334 37 19.5923 37V37C9.65116 37 1.59229 28.9411 1.59229 19V19Z" stroke="#859480" stroke-width="1.8"/>
<path d="M19.5931 16.6C18.9566 16.6 18.3461 16.8529 17.896 17.3029C17.4459 17.753 17.1931 18.3635 17.1931 19C17.1931 19.6365 17.4459 20.247 17.896 20.6971C18.3461 21.1471 18.9566 21.4 19.5931 21.4C20.2296 21.4 20.8401 21.1471 21.2901 20.6971C21.7402 20.247 21.9931 19.6365 21.9931 19C21.9931 18.3635 21.7402 17.753 21.2901 17.3029C20.8401 16.8529 20.2296 16.6 19.5931 16.6ZM19.5931 15C20.654 15 21.6714 15.4214 22.4215 16.1716C23.1717 16.9217 23.5931 17.9391 23.5931 19C23.5931 20.0609 23.1717 21.0783 22.4215 21.8284C21.6714 22.5786 20.654 23 19.5931 23C18.5322 23 17.5148 22.5786 16.7647 21.8284C16.0145 21.0783 15.5931 20.0609 15.5931 19C15.5931 17.9391 16.0145 16.9217 16.7647 16.1716C17.5148 15.4214 18.5322 15 19.5931 15ZM24.7931 14.8C24.7931 15.0652 24.6877 15.3196 24.5002 15.5071C24.3127 15.6946 24.0583 15.8 23.7931 15.8C23.5279 15.8 23.2735 15.6946 23.086 15.5071C22.8984 15.3196 22.7931 15.0652 22.7931 14.8C22.7931 14.5348 22.8984 14.2804 23.086 14.0929C23.2735 13.9054 23.5279 13.8 23.7931 13.8C24.0583 13.8 24.3127 13.9054 24.5002 14.0929C24.6877 14.2804 24.7931 14.5348 24.7931 14.8ZM19.5931 12.6C17.6139 12.6 17.2907 12.6056 16.3699 12.6464C15.7427 12.676 15.3219 12.76 14.9315 12.912C14.605 13.0323 14.3097 13.2245 14.0675 13.4744C13.8173 13.7165 13.6248 14.0118 13.5043 14.3384C13.3523 14.7304 13.2683 15.1504 13.2395 15.7768C13.1979 16.66 13.1923 16.9688 13.1923 19C13.1923 20.98 13.1979 21.3024 13.2387 22.2232C13.2683 22.8496 13.3523 23.2712 13.5035 23.6608C13.6395 24.0088 13.7995 24.2592 14.0651 24.5248C14.3347 24.7936 14.5851 24.9544 14.9291 25.0872C15.3243 25.24 15.7451 25.3248 16.3691 25.3536C17.2523 25.3952 17.5611 25.4 19.5923 25.4C21.5723 25.4 21.8947 25.3944 22.8155 25.3536C23.4411 25.324 23.8619 25.24 24.2531 25.0888C24.5796 24.9685 24.8749 24.7763 25.1171 24.5264C25.3867 24.2576 25.5475 24.0072 25.6803 23.6624C25.8323 23.2688 25.9171 22.848 25.9459 22.2224C25.9875 21.34 25.9923 21.0304 25.9923 19C25.9923 17.0208 25.9867 16.6976 25.9459 15.7768C25.9163 15.1512 25.8315 14.7288 25.6803 14.3384C25.56 14.0119 25.3678 13.7166 25.1179 13.4744C24.8758 13.2242 24.5805 13.0317 24.2539 12.9112C23.8619 12.7592 23.4411 12.6752 22.8155 12.6464C21.9331 12.6048 21.6243 12.6 19.5923 12.6M19.5923 11C21.7659 11 22.0371 11.008 22.8907 11.048C23.7419 11.088 24.3227 11.2216 24.8323 11.42C25.3603 11.6232 25.8051 11.8984 26.2499 12.3424C26.6568 12.7422 26.9716 13.226 27.1723 13.76C27.3699 14.2696 27.5043 14.8504 27.5443 15.7024C27.5819 16.5552 27.5923 16.8264 27.5923 19C27.5923 21.1736 27.5843 21.4448 27.5443 22.2976C27.5043 23.1504 27.3699 23.7296 27.1723 24.24C26.9716 24.774 26.6568 25.2578 26.2499 25.6576C25.8501 26.0646 25.3663 26.3793 24.8323 26.58C24.3227 26.7776 23.7419 26.912 22.8907 26.952C22.0371 26.9896 21.7659 27 19.5923 27C17.4187 27 17.1475 26.992 16.2939 26.952C15.4427 26.912 14.8627 26.7776 14.3523 26.58C13.8183 26.3793 13.3345 26.0646 12.9347 25.6576C12.5277 25.2578 12.2129 24.774 12.0123 24.24C11.8139 23.7304 11.6803 23.1496 11.6403 22.2976C11.6019 21.4448 11.5923 21.1736 11.5923 19C11.5923 16.8264 11.6003 16.5552 11.6403 15.7024C11.6803 14.8496 11.8139 14.2704 12.0123 13.76C12.2129 13.226 12.5277 12.7422 12.9347 12.3424C13.3345 11.9354 13.8183 11.6207 14.3523 11.42C14.8619 11.2216 15.4419 11.088 16.2939 11.048C17.1483 11.0104 17.4195 11 19.5931 11" fill="#859480"/>
</svg>
