<svg width="39" height="38" viewBox="0 0 39 38" fill="none" xmlns="http://www.w3.org/2000/svg">
<path d="M1.87695 19C1.87695 9.05887 9.93583 1 19.877 1V1C29.8181 1 37.877 9.05887 37.877 19V19C37.877 28.9411 29.8181 37 19.877 37V37C9.93583 37 1.87695 28.9411 1.87695 19V19Z" stroke="#859480" stroke-width="1.8"/>
<path d="M26.0992 11C26.5707 11 27.0229 11.1873 27.3563 11.5207C27.6897 11.8541 27.877 12.3063 27.877 12.7778V25.2222C27.877 25.6937 27.6897 26.1459 27.3563 26.4793C27.0229 26.8127 26.5707 27 26.0992 27H13.6547C13.1832 27 12.7311 26.8127 12.3977 26.4793C12.0643 26.1459 11.877 25.6937 11.877 25.2222V12.7778C11.877 12.3063 12.0643 11.8541 12.3977 11.5207C12.7311 11.1873 13.1832 11 13.6547 11H26.0992ZM25.6547 24.7778V20.0667C25.6547 19.2981 25.3494 18.5611 24.806 18.0176C24.2626 17.4742 23.5255 17.1689 22.757 17.1689C22.0014 17.1689 21.1214 17.6311 20.6947 18.3244V17.3378H18.2147V24.7778H20.6947V20.3956C20.6947 19.7111 21.2458 19.1511 21.9303 19.1511C22.2603 19.1511 22.5769 19.2822 22.8102 19.5156C23.0436 19.749 23.1747 20.0655 23.1747 20.3956V24.7778H25.6547ZM15.3258 15.9422C15.7219 15.9422 16.1017 15.7849 16.3818 15.5048C16.6618 15.2248 16.8192 14.8449 16.8192 14.4489C16.8192 13.6222 16.1525 12.9467 15.3258 12.9467C14.9274 12.9467 14.5453 13.1049 14.2636 13.3867C13.9819 13.6684 13.8236 14.0505 13.8236 14.4489C13.8236 15.2756 14.4992 15.9422 15.3258 15.9422ZM16.5614 24.7778V17.3378H14.0992V24.7778H16.5614Z" fill="#859480"/>
</svg>
