<svg width="17" height="18" viewBox="0 0 17 18" fill="none" xmlns="http://www.w3.org/2000/svg">
<path fill-rule="evenodd" clip-rule="evenodd" d="M8.37669 0C10.5983 0 12.729 0.842855 14.2999 2.34315C15.8708 3.84344 16.7534 5.87827 16.7534 8C16.7534 10.7324 15.1935 12.9689 13.5498 14.5733C12.7285 15.3663 11.8325 16.0852 10.8729 16.7209L10.4764 16.9787L10.2903 17.0969L9.93941 17.3102L9.62668 17.4924L9.23949 17.7076C8.97668 17.8508 8.6793 17.9262 8.37669 17.9262C8.07408 17.9262 7.7767 17.8508 7.51389 17.7076L7.1267 17.4924L6.64272 17.208L6.46401 17.0969L6.08241 16.8542C5.04727 16.1854 4.08308 15.4214 3.20362 14.5733C1.55993 12.968 0 10.7324 0 8C0 5.87827 0.882542 3.84344 2.45348 2.34315C4.02441 0.842855 6.15505 0 8.37669 0ZM8.37669 1.77778C6.64875 1.77778 4.99158 2.43333 3.76975 3.60022C2.54791 4.76712 1.86149 6.34976 1.86149 8C1.86149 10.064 3.04539 11.8756 4.53365 13.3298C5.17357 13.9484 5.86523 14.5162 6.60176 15.0276L7.02804 15.3173C7.16579 15.4092 7.29827 15.4945 7.42547 15.5733L7.78846 15.7956L8.10771 15.9813L8.37669 16.1316L8.80018 15.8924L9.14176 15.688C9.32357 15.5778 9.51809 15.4542 9.72534 15.3173L10.1516 15.0276C10.8882 14.5162 11.5798 13.9484 12.2197 13.3298C13.708 11.8764 14.8919 10.064 14.8919 8C14.8919 6.34976 14.2055 4.76712 12.9836 3.60022C11.7618 2.43333 10.1046 1.77778 8.37669 1.77778ZM8.37669 4.44444C9.36409 4.44444 10.311 4.81905 11.0092 5.48584C11.7074 6.15264 12.0997 7.05701 12.0997 8C12.0997 8.94299 11.7074 9.84736 11.0092 10.5142C10.311 11.181 9.36409 11.5556 8.37669 11.5556C7.3893 11.5556 6.44234 11.181 5.74415 10.5142C5.04596 9.84736 4.65372 8.94299 4.65372 8C4.65372 7.05701 5.04596 6.15264 5.74415 5.48584C6.44234 4.81905 7.3893 4.44444 8.37669 4.44444ZM8.37669 6.22222C7.88299 6.22222 7.40952 6.40952 7.06042 6.74292C6.71133 7.07632 6.5152 7.5285 6.5152 8C6.5152 8.4715 6.71133 8.92368 7.06042 9.25708C7.40952 9.59048 7.88299 9.77778 8.37669 9.77778C8.87039 9.77778 9.34386 9.59048 9.69296 9.25708C10.0421 8.92368 10.2382 8.4715 10.2382 8C10.2382 7.5285 10.0421 7.07632 9.69296 6.74292C9.34386 6.40952 8.87039 6.22222 8.37669 6.22222Z" fill="#859480"/>
</svg>
