<svg width="17" height="18" viewBox="0 0 17 18" fill="none" xmlns="http://www.w3.org/2000/svg">
<path d="M8.3766 17.1858C7.24418 17.1858 6.17998 16.9708 5.184 16.5408C4.18801 16.1107 3.32164 15.5276 2.58489 14.7914C1.84813 14.0552 1.265 13.1888 0.835501 12.1923C0.406 11.1957 0.190976 10.1315 0.190431 8.99965C0.189885 7.86777 0.404909 6.80357 0.835501 5.80704C1.26609 4.81051 1.84922 3.94414 2.58489 3.20793C3.32055 2.47172 4.18692 1.88859 5.184 1.45855C6.18107 1.0285 7.24527 0.813477 8.3766 0.813477C9.50793 0.813477 10.5721 1.0285 11.5692 1.45855C12.5663 1.88859 13.4327 2.47172 14.1683 3.20793C14.904 3.94414 15.4874 4.81051 15.9185 5.80704C16.3497 6.80357 16.5644 7.86777 16.5628 8.99965V10.1866C16.5628 10.9916 16.2866 11.6773 15.7343 12.2438C15.182 12.8103 14.5031 13.0933 13.6976 13.0927C13.2201 13.0927 12.7699 12.9904 12.3469 12.7858C11.9239 12.5811 11.5692 12.2878 11.2827 11.9057C10.887 12.3014 10.4401 12.5983 9.9418 12.7964C9.44353 12.9945 8.9218 13.0933 8.3766 13.0927C7.24418 13.0927 6.27903 12.6935 5.48115 11.8951C4.68328 11.0967 4.28406 10.1315 4.28352 8.99965C4.28297 7.86777 4.68218 6.90263 5.48115 6.1042C6.28013 5.30578 7.24527 4.90656 8.3766 4.90656C9.50793 4.90656 10.4734 5.30578 11.2729 6.1042C12.0724 6.90263 12.4713 7.86777 12.4697 8.99965V10.1866C12.4697 10.5414 12.5857 10.8415 12.8176 11.0871C13.0495 11.3327 13.3429 11.4555 13.6976 11.4555C14.0524 11.4555 14.3457 11.3327 14.5776 11.0871C14.8096 10.8415 14.9255 10.5414 14.9255 10.1866V8.99965C14.9255 7.1714 14.2911 5.62285 13.0223 4.354C11.7534 3.08514 10.2048 2.45071 8.3766 2.45071C6.54836 2.45071 4.99981 3.08514 3.73095 4.354C2.46209 5.62285 1.82767 7.1714 1.82767 8.99965C1.82767 10.8279 2.46209 12.3764 3.73095 13.6453C4.99981 14.9142 6.54836 15.5486 8.3766 15.5486H11.6511C11.883 15.5486 12.0776 15.6272 12.2347 15.7844C12.3919 15.9415 12.4702 16.1358 12.4697 16.3672C12.4691 16.5986 12.3906 16.7932 12.2339 16.9509C12.0773 17.1086 11.883 17.1869 11.6511 17.1858H8.3766ZM8.3766 11.4555C9.05879 11.4555 9.63864 11.2167 10.1162 10.7392C10.5937 10.2617 10.8325 9.68183 10.8325 8.99965C10.8325 8.31747 10.5937 7.73762 10.1162 7.26009C9.63864 6.78256 9.05879 6.5438 8.3766 6.5438C7.69442 6.5438 7.11457 6.78256 6.63704 7.26009C6.15952 7.73762 5.92075 8.31747 5.92075 8.99965C5.92075 9.68183 6.15952 10.2617 6.63704 10.7392C7.11457 11.2167 7.69442 11.4555 8.3766 11.4555Z" fill="#859480"/>
</svg>
