<svg width="19" height="25" viewBox="0 0 19 25" fill="none" xmlns="http://www.w3.org/2000/svg">
<path d="M9.69294 24.5041C7.17908 24.5041 5.04516 23.6271 3.29117 21.8731C1.53716 20.1191 0.660156 17.9852 0.660156 15.4713C0.660156 13.4278 1.26948 11.6012 2.48812 9.99155C3.70674 8.38186 5.30039 7.3071 7.26905 6.76729C6.80583 6.6604 6.35197 6.50139 5.90746 6.29025C5.46295 6.07914 5.07144 5.80432 4.73292 5.4658C4.03989 4.77277 3.59227 3.95056 3.39005 2.99918C3.18783 2.04779 3.12235 1.08127 3.19362 0.0996063C4.15747 0.0283396 5.1084 0.0915917 6.04643 0.289364C6.98443 0.487113 7.79995 0.923608 8.493 1.59885C9.02571 2.10482 9.4092 2.69141 9.64347 3.35861C9.87777 4.02584 10.0252 4.72557 10.0858 5.45781C10.3779 4.75765 10.7316 4.09578 11.1467 3.47222C11.5619 2.84865 12.0358 2.27052 12.5685 1.73781C12.7609 1.54539 13.0049 1.44918 13.3007 1.44918C13.5964 1.44918 13.8405 1.54539 14.0329 1.73781C14.2253 1.93021 14.3215 2.17428 14.3215 2.47003C14.3215 2.76577 14.2253 3.00985 14.0329 3.20228C13.5323 3.7029 13.0895 4.24896 12.7047 4.84045C12.3199 5.43196 12.0215 6.06177 11.8094 6.72987C13.8476 7.20912 15.5099 8.26204 16.7962 9.88865C18.0826 11.5153 18.7257 13.3762 18.7257 15.4713C18.7257 17.9852 17.8487 20.1191 16.0947 21.8731C14.3407 23.6271 12.2068 24.5041 9.69294 24.5041ZM9.69294 22.4197C11.6153 22.4197 13.254 21.7422 14.6089 20.3873C15.9638 19.0324 16.6413 17.3937 16.6413 15.4713C16.6413 13.549 15.9638 11.9103 14.6089 10.5554C13.254 9.20049 11.6153 8.52302 9.69294 8.52302C7.77057 8.52302 6.13193 9.20049 4.777 10.5554C3.42208 11.9103 2.74462 13.549 2.74462 15.4713C2.74462 17.3937 3.42208 19.0324 4.777 20.3873C6.13193 21.7422 7.77057 22.4197 9.69294 22.4197Z" fill="#1C1B1F"/>
</svg>
