<svg width="22" height="21" viewBox="0 0 22 21" fill="none" xmlns="http://www.w3.org/2000/svg">
<path fill-rule="evenodd" clip-rule="evenodd" d="M10.9172 20.7031C10.6196 20.7031 10.3281 20.618 10.0773 20.4577C9.82971 20.2995 9.63187 20.0746 9.5065 19.8091L7.12516 15.0014C7.12048 14.992 7.116 14.9824 7.11172 14.9728L7.10686 14.9668L7.09966 14.964C7.09053 14.963 7.08141 14.9618 7.07232 14.9604L1.82894 14.1836C1.53914 14.1555 1.26278 14.0467 1.03131 13.8694C0.791798 13.6859 0.610625 13.437 0.509735 13.1526C0.408845 12.8683 0.392565 12.5608 0.462869 12.2674C0.5329 11.9752 0.685853 11.7094 0.903302 11.502L4.74147 7.7988L4.75021 7.7905C4.75569 7.78537 4.75981 7.77897 4.76218 7.77184C4.76455 7.76473 4.76511 7.75713 4.76379 7.74975L4.76295 7.74484L3.84834 2.39226C3.79809 2.10216 3.8299 1.80246 3.94062 1.52976C4.05148 1.25646 4.23682 1.01991 4.47552 0.846807C4.71423 0.673857 4.99671 0.571257 5.29083 0.550858C5.58436 0.530458 5.87773 0.592707 6.13768 0.730408L6.13926 0.731308L10.8635 3.22806C10.8804 3.23541 10.8987 3.23931 10.9173 3.23931C10.9358 3.23931 10.9541 3.23541 10.971 3.22806L15.6952 0.731308C15.9553 0.593159 16.2499 0.530308 16.5436 0.550858C16.8377 0.571257 17.1202 0.673857 17.359 0.846807C17.5976 1.01991 17.783 1.25646 17.8939 1.52976C18.0046 1.80246 18.0365 2.10066 17.9864 2.39061L17.9861 2.39226L17.0716 7.74486L17.0707 7.74975C17.0693 7.75713 17.0699 7.76473 17.0723 7.77184C17.0746 7.77895 17.0788 7.78537 17.0842 7.7905L17.093 7.7988L20.9312 11.5021C21.1486 11.7094 21.3016 11.9752 21.3716 12.2674C21.4418 12.5608 21.4256 12.8683 21.3247 13.1526C21.2239 13.437 21.0427 13.6859 20.8031 13.8694C20.5717 14.0467 20.2954 14.1555 20.0056 14.1836L14.7621 14.9604C14.7531 14.9618 14.7439 14.963 14.7348 14.964L14.7276 14.9668L14.7227 14.9728C14.7185 14.9824 14.714 14.992 14.7093 15.0014L12.3279 19.8091C12.2026 20.0747 12.0047 20.2995 11.7571 20.4577C11.5063 20.618 11.2149 20.7031 10.9172 20.7031Z" fill="#FFCC00"/>
</svg>
