<svg width="79" height="78" viewBox="0 0 79 78" fill="none" xmlns="http://www.w3.org/2000/svg">
<path d="M69.2425 44.5713V55.54C69.2425 58.6169 66.7482 61.1112 63.6711 61.1112H15.329C12.252 61.1112 9.75757 58.6169 9.75757 55.54V44.5713" stroke="#84B372" stroke-width="3" stroke-linecap="round" stroke-linejoin="round"/>
<path d="M33.9284 61.2861L28.3569 75.2147" stroke="#84B372" stroke-width="3" stroke-linecap="round" stroke-linejoin="round"/>
<path d="M45.0713 61.2861L50.6427 75.2147" stroke="#84B372" stroke-width="3" stroke-linecap="round" stroke-linejoin="round"/>
<path d="M22.7856 75.2148H56.2142" stroke="#84B372" stroke-width="3" stroke-linecap="round" stroke-linejoin="round"/>
<path d="M5.89722 19.6074L13.6517 3.48242H65.348L73.1029 19.6074H5.89722Z" stroke="#84B372" stroke-width="3" stroke-linecap="round" stroke-linejoin="round"/>
<path d="M27.9722 19.6074V24.2145C27.9722 26.6583 26.8853 29.002 24.9508 30.7301C23.0163 32.458 20.3926 33.4289 17.6568 33.4289H16.2126C13.4768 33.4289 10.8531 32.458 8.91855 30.7301C6.98404 29.002 5.89722 26.6583 5.89722 24.2145V19.6074" stroke="#84B372" stroke-width="3" stroke-linecap="round" stroke-linejoin="round"/>
<path d="M51.1818 19.6074V24.2145C51.1818 26.6583 50.095 29.002 48.1605 30.7301C46.226 32.458 43.6022 33.4289 40.8664 33.4289H38.2876C35.5517 33.4289 32.928 32.458 30.9934 30.7301C29.0589 29.002 27.9722 26.6583 27.9722 24.2145V19.6074" stroke="#84B372" stroke-width="3" stroke-linecap="round" stroke-linejoin="round"/>
<path d="M73.1017 19.6074V24.2145C73.1017 26.6583 72.0148 29.002 70.0804 30.7301C68.146 32.458 65.5218 33.4289 62.7862 33.4289H61.497C58.7609 33.4289 56.1372 32.458 54.2027 30.7301C52.2682 29.002 51.1814 26.6583 51.1814 24.2145V19.6074" stroke="#84B372" stroke-width="3" stroke-linecap="round" stroke-linejoin="round"/>
</svg>
