<svg width="103" height="99" viewBox="0 0 103 99" fill="none" xmlns="http://www.w3.org/2000/svg">
<path d="M33.5881 7.46551L41.147 1.26113C43.2208 -0.441018 46.2564 -0.418911 48.3001 1.32008L55.7463 7.65711C57.452 9.10873 59.5784 9.99296 61.825 10.1845L71.6456 11.0393C74.343 11.2751 76.4695 13.3973 76.6648 16.0426L77.3636 25.6881C77.5214 27.8913 78.3855 29.9988 79.8356 31.6936L86.1623 39.1064C87.898 41.1401 87.8754 44.1171 86.1022 46.1213L79.6403 53.4236C78.1601 55.0963 77.2584 57.1816 77.063 59.3849L76.1914 69.0156C75.951 71.661 73.787 73.7463 71.0896 73.9379L61.254 74.6232C59.0073 74.7779 56.8584 75.6253 55.1302 77.0474L47.5713 83.2518C45.4975 84.954 42.4619 84.9319 40.4181 83.1929L32.9719 76.8559C31.2663 75.4042 29.1399 74.52 26.8933 74.3284L17.0727 73.4737C14.3752 73.2379 12.2488 71.1157 12.0535 68.4704L11.3547 58.8248C11.1969 56.6216 10.3328 54.5142 8.88262 52.8194L2.556 45.4066C0.820306 43.3728 0.84286 40.3959 2.61612 38.3916L9.07799 31.0893C10.5582 29.4166 11.4599 27.3313 11.6552 25.1281L12.5269 15.4973C12.7673 12.852 14.9313 10.7667 17.6287 10.5751L27.4643 9.8898C29.711 9.73506 31.8599 8.88766 33.5881 7.46551Z" fill="#F5D188"/>
<path d="M32.3105 8.8874L39.8694 2.68301C41.9508 0.980862 44.9788 1.00296 47.0301 2.74195L54.4763 9.07898C56.1819 10.5306 58.3084 11.4148 60.555 11.6064L70.3756 12.4612C73.073 12.697 75.1994 14.8191 75.3948 17.4645L76.0936 27.11C76.2514 29.3132 77.1154 31.4206 78.5656 33.1154L84.8923 40.5283C86.628 42.562 86.6054 45.5389 84.8321 47.5432L78.3703 54.8455C76.8901 56.5182 75.9884 58.6035 75.793 60.8067L74.9214 70.4375C74.681 73.0829 72.517 75.1682 69.8195 75.3598L59.9839 76.045C57.7373 76.1998 55.5884 77.0472 53.8602 78.4693L46.3013 84.6737C44.2274 86.3759 41.1919 86.3538 39.1481 84.6148L31.7019 78.2777C29.9963 76.8261 27.8699 75.9419 25.6233 75.7503L15.8027 74.8955C13.1052 74.6597 10.9788 72.5376 10.7835 69.8923L10.0847 60.2467C9.92689 58.0361 9.06277 55.9361 7.6126 54.2413L1.28598 46.8284C-0.449714 44.7947 -0.427159 41.8178 1.3461 39.8135L7.80797 32.5112C9.28819 30.8385 10.1898 28.7532 10.3852 26.55L11.2568 16.9192C11.4973 14.2739 13.6612 12.1885 16.3587 11.997L26.1943 11.3117C28.4409 11.1569 30.5899 10.3095 32.318 8.8874H32.3105Z" fill="#FFDD92"/>
<mask id="mask0_176_5657" style="mask-type:luminance" maskUnits="userSpaceOnUse" x="0" y="0" width="87" height="86">
<path d="M32.8967 8.18719L40.4556 1.98281C42.5294 0.280662 45.565 0.302769 47.6088 2.04176L55.0549 8.37879C56.7606 9.83041 58.887 10.7146 61.1336 10.9062L70.9542 11.761C73.6517 11.9968 75.7781 14.1189 75.9734 16.7643L76.6722 26.4098C76.83 28.613 77.6941 30.7205 79.1442 32.4152L85.4709 39.8281C87.2066 41.8618 87.184 44.8387 85.4108 46.843L78.9489 54.1453C77.4687 55.818 76.567 57.9033 76.3716 60.1065L75.5001 69.7373C75.2596 72.3827 73.0956 74.468 70.3981 74.6596L60.5626 75.3449C58.3159 75.4996 56.167 76.3543 54.4388 77.7691L46.8799 83.9735C44.8061 85.6757 41.7705 85.6536 39.7267 83.9146L32.2805 77.5776C30.5749 76.1259 28.4485 75.2417 26.2018 75.0501L16.3813 74.1954C13.6839 73.9596 11.5574 71.8374 11.362 69.1921L10.6633 59.5465C10.5055 57.3433 9.64141 55.2359 8.19124 53.5411L1.86461 46.1283C0.128922 44.0945 0.151431 41.1176 1.92469 39.1133L8.3866 31.811C9.86683 30.1383 10.7685 28.053 10.9638 25.8498L11.8354 16.219C12.0759 13.5737 14.2399 11.4883 16.9373 11.2968L26.7729 10.6115C29.0195 10.4567 31.1685 9.60934 32.8967 8.18719Z" fill="white"/>
</mask>
<g mask="url(#mask0_176_5657)">
<path d="M32.8972 8.18719L40.4561 1.98281C42.5299 0.280662 45.5655 0.302769 47.6092 2.04176L55.0554 8.37879C56.7611 9.83041 58.8875 10.7146 61.1341 10.9062L70.9547 11.761C73.6522 11.9968 75.7786 14.1189 75.9739 16.7643L76.6727 26.4098C76.8305 28.613 77.6946 30.7205 79.1447 32.4152L85.4714 39.8281C87.207 41.8618 87.1845 44.8387 85.4113 46.843L78.9494 54.1453C77.4691 55.818 76.5675 57.9033 76.3721 60.1065L75.5005 69.7373C75.2601 72.3827 73.0961 74.468 70.3986 74.6596L60.5631 75.3449C58.3164 75.4996 56.1675 76.3543 54.4393 77.7691L46.8804 83.9735C44.8066 85.6757 41.771 85.6536 39.7272 83.9146L32.281 77.5776C30.5754 76.1259 28.449 75.2417 26.2023 75.0501L16.3818 74.1954C13.6843 73.9596 11.5579 71.8374 11.3625 69.1921L10.6638 59.5465C10.506 57.3433 9.64189 55.2359 8.19173 53.5411L1.8651 46.1283C0.12941 44.0945 0.151919 41.1176 1.92518 39.1133L8.38709 31.811C9.86732 30.1383 10.769 28.053 10.9643 25.8498L11.8359 16.219C12.0764 13.5737 14.2404 11.4883 16.9378 11.2968L26.7734 10.6115C29.02 10.4567 31.169 9.60934 32.8972 8.18719Z" fill="url(#paint0_linear_176_5657)"/>
<g style="mix-blend-mode:multiply">
<path opacity="0.4" d="M76.8079 36.3282C84.72 55.5382 75.2601 77.3936 55.6716 85.1601C36.083 92.9193 13.797 83.6422 5.87746 64.4322C-2.03459 45.2222 7.42531 23.3668 27.0138 15.6003C46.6024 7.84115 68.8884 17.1182 76.8079 36.3282Z" fill="white"/>
<path opacity="0.44" d="M76.2215 36.3935C83.9908 55.2425 74.7037 76.6925 55.4834 84.3117C36.263 91.9235 14.3903 82.8232 6.62099 63.9743C-1.1483 45.1253 8.13881 23.6753 27.3592 16.0561C46.5795 8.44431 68.4522 17.5446 76.2215 36.3935Z" fill="#FEFBF6"/>
<path opacity="0.48" d="M52.3947 84.4947C71.8171 78.5913 82.6822 58.365 76.6625 39.3179C70.6429 20.2708 50.018 9.61571 30.5956 15.5191C11.1732 21.4224 0.308127 41.6487 6.32779 60.6958C12.3475 79.7429 32.9723 90.398 52.3947 84.4947Z" fill="#FEF6EC"/>
<path opacity="0.51" d="M51.9871 83.6656C71.0807 78.0301 81.9006 58.2823 76.1541 39.5576C70.4076 20.833 50.2707 10.2221 31.177 15.8576C12.0834 21.4931 1.26346 41.2409 7.00999 59.9655C12.7565 78.6902 32.8934 89.3011 51.9871 83.6656Z" fill="#FDF2E3"/>
<path opacity="0.55" d="M51.5337 82.8847C70.303 77.5371 81.0981 58.2805 75.6451 39.8738C70.1921 21.4672 50.556 10.8808 31.7866 16.2284C13.0173 21.576 2.22228 40.8327 7.67528 59.2393C13.1283 77.6459 32.7643 88.2324 51.5337 82.8847Z" fill="#FDEDD9"/>
<path opacity="0.59" d="M51.0386 82.1874C69.4928 77.1514 80.29 58.398 75.1548 40.3005C70.0197 22.2029 50.8968 11.6143 32.4426 16.6502C13.9884 21.6861 3.19118 40.4395 8.32632 58.5371C13.4615 76.6347 32.5844 87.2233 51.0386 82.1874Z" fill="#FCE9D0"/>
<path opacity="0.62" d="M50.4834 81.4193C68.6229 76.7226 79.4454 58.4943 74.6562 40.7053C69.8669 22.9163 51.2794 12.303 33.1399 16.9997C15.0004 21.6964 4.17789 39.9247 8.96716 57.7137C13.7564 75.5027 32.3439 86.1161 50.4834 81.4193Z" fill="#FBE4C6"/>
<path opacity="0.66" d="M49.8769 80.6482C67.7075 76.3274 78.5902 58.6494 74.1842 41.1634C69.7782 23.6774 51.7519 13.0049 33.9213 17.3258C16.0908 21.6467 5.20801 39.3246 9.61402 56.8106C14.02 74.2967 32.0464 84.9691 49.8769 80.6482Z" fill="#FBE0BD"/>
<path opacity="0.7" d="M49.1626 79.9726C66.6914 76.0797 77.6834 58.9886 73.7138 41.7985C69.7442 24.6085 52.3163 13.829 34.7875 17.7218C17.2587 21.6147 6.26681 38.7058 10.2364 55.8959C14.206 73.0859 31.6338 83.8655 49.1626 79.9726Z" fill="#FADBB3"/>
<path opacity="0.74" d="M48.3326 79.24C65.5655 75.8385 76.7237 59.3811 73.2552 42.4813C69.7867 25.5814 53.005 14.6389 35.7721 18.0403C18.5393 21.4418 7.3811 37.8992 10.8496 54.7991C14.3181 71.6989 31.0998 82.6415 48.3326 79.24Z" fill="#F9D7AA"/>
<path opacity="0.78" d="M47.3432 78.5167C64.2852 75.6976 75.6891 59.9434 72.8144 43.3287C69.9398 26.714 53.8751 15.5305 36.9331 18.3497C19.9911 21.1688 8.58721 36.9229 11.4619 53.5376C14.3365 70.1523 30.4011 81.3358 47.3432 78.5167Z" fill="#F9D2A0"/>
<path opacity="0.81" d="M46.1088 77.7881C62.7604 75.6788 74.5156 60.731 72.3648 44.4011C70.2139 28.0712 54.9715 16.5432 38.3199 18.6525C21.6683 20.7618 9.91304 35.7096 12.0639 52.0395C14.2147 68.3694 29.4572 79.8974 46.1088 77.7881Z" fill="#F8CE97"/>
<path opacity="0.85" d="M44.5399 77.0667C60.8887 75.85 73.1361 61.8664 71.8954 45.8336C70.6546 29.8008 56.3955 17.79 40.0468 19.0068C23.6981 20.2236 11.4506 34.2071 12.6914 50.2399C13.9321 66.2727 28.1912 78.2835 44.5399 77.0667Z" fill="#F8C98D"/>
<path opacity="0.89" d="M42.5017 76.2277C58.5031 76.1593 71.4181 63.3827 71.3483 47.6906C71.2785 31.9984 58.2502 19.3329 42.2489 19.4014C26.2475 19.4699 13.3325 32.2464 13.4023 47.9385C13.4721 63.6307 26.5004 76.2962 42.5017 76.2277Z" fill="#F7C584"/>
<path opacity="0.93" d="M70.6072 50.2163C72.057 34.9768 60.6348 21.4701 45.095 20.0483C29.5552 18.6265 15.7824 29.8281 14.3326 45.0676C12.8828 60.3071 24.305 73.8137 39.8448 75.2355C55.3846 76.6573 69.1574 65.4558 70.6072 50.2163Z" fill="#F6C07A"/>
<path opacity="0.96" d="M69.4155 53.363C72.7496 38.8067 63.4197 24.3558 48.5765 21.086C33.7333 17.8163 18.9977 26.9659 15.6635 41.5223C12.3293 56.0786 21.6592 70.5296 36.5024 73.7993C51.3456 77.069 66.0813 67.9194 69.4155 53.363Z" fill="#F6BC71"/>
<path d="M67.6133 56.8365C73.0083 43.3013 66.1932 28.0399 52.3913 22.7491C38.5894 17.4584 23.0273 24.1418 17.6323 37.677C12.2373 51.2121 19.0524 66.4736 32.8542 71.7643C46.6561 77.0551 62.2183 70.3716 67.6133 56.8365Z" fill="#F5B767"/>
</g>
</g>
<mask id="mask1_176_5657" style="mask-type:luminance" maskUnits="userSpaceOnUse" x="13" y="12" width="61" height="60">
<path d="M64.6017 62.9474C76.2628 51.5117 76.2627 32.9708 64.6017 21.5351C52.9407 10.0994 34.0344 10.0994 22.3734 21.5351C10.7124 32.9708 10.7124 51.5117 22.3734 62.9474C34.0344 74.383 52.9407 74.3831 64.6017 62.9474Z" fill="white"/>
</mask>
<g mask="url(#mask1_176_5657)">
<path d="M64.6017 62.9493C76.2628 51.5136 76.2627 32.9727 64.6017 21.537C52.9407 10.1013 34.0344 10.1013 22.3734 21.537C10.7124 32.9727 10.7124 51.5136 22.3734 62.9493C34.0344 74.385 52.9407 74.385 64.6017 62.9493Z" fill="url(#paint1_linear_176_5657)"/>
<path d="M43.4912 12.9697C35.0983 12.9697 27.5319 16.374 22.1069 21.8416C27.4868 16.7056 34.7226 13.6255 42.8225 13.6255C59.3154 13.6255 72.5848 27.0143 72.5848 43.1885C72.5848 51.1318 69.2261 59.1784 63.493 63.9311C70.8641 57.8299 73.3512 50.4834 73.3512 42.2527C73.3512 26.0785 59.9841 12.9697 43.4912 12.9697Z" fill="#FFAB1A"/>
<path d="M44.2577 70.7764C27.7649 70.7764 14.3978 57.6676 14.3978 41.4935C14.3978 33.6017 17.5986 26.4467 22.7757 21.1855C17.1478 26.5131 13.6313 33.9701 13.6313 42.2451C13.6313 58.4192 26.9984 71.528 43.4913 71.528C51.9293 71.528 59.5408 68.0795 64.9658 62.5604C59.5934 67.6374 52.305 70.7764 44.2577 70.7764Z" fill="#FFC153"/>
<g style="mix-blend-mode:screen">
<path d="M45.2716 73.0318C63.5929 73.0318 78.4452 58.4665 78.4452 40.4993C78.4452 22.5321 63.5929 7.9668 45.2716 7.9668C26.9504 7.9668 12.0981 22.5321 12.0981 40.4993C12.0981 58.4665 26.9504 73.0318 45.2716 73.0318Z" fill="#947446"/>
<path opacity="0.96" d="M76.7759 48.3217C80.9463 30.9934 70.003 13.6306 52.3332 9.54071C34.6635 5.45086 16.9585 16.1827 12.7881 33.511C8.61763 50.8394 19.561 68.2022 37.2307 72.2921C54.9005 76.3819 72.6054 65.65 76.7759 48.3217Z" fill="#8B6D42"/>
<path opacity="0.93" d="M44.3326 73.3049C62.3219 73.3049 76.9051 59.0036 76.9051 41.3619C76.9051 23.7203 62.3219 9.41895 44.3326 9.41895C26.3434 9.41895 11.7603 23.7203 11.7603 41.3619C11.7603 59.0036 26.3434 73.3049 44.3326 73.3049Z" fill="#82663D"/>
<path opacity="0.89" d="M75.7249 46.8819C78.58 29.6329 66.6359 13.3801 49.047 10.5801C31.4581 7.78024 14.885 19.4936 12.0299 36.7426C9.17484 53.9916 21.119 70.2444 38.7078 73.0443C56.2967 75.8442 72.8698 64.1309 75.7249 46.8819Z" fill="#785E39"/>
<path opacity="0.85" d="M65.9949 64.3926C78.4775 52.1512 78.4775 32.3039 65.9949 20.0625C53.5123 7.82104 33.2739 7.82106 20.7913 20.0625C8.30862 32.3039 8.30863 52.1512 20.7913 64.3926C33.2739 76.634 53.5123 76.6341 65.9949 64.3926Z" fill="#6F5735"/>
<path opacity="0.81" d="M42.92 73.7102C60.4072 73.7102 74.5833 59.808 74.5833 42.6588C74.5833 25.5096 60.4072 11.6074 42.92 11.6074C25.4329 11.6074 11.2568 25.5096 11.2568 42.6588C11.2568 59.808 25.4329 73.7102 42.92 73.7102Z" fill="#665030"/>
<path opacity="0.78" d="M64.615 64.8387C76.8599 52.8304 76.8599 33.361 64.615 21.3527C52.37 9.34433 32.517 9.34432 20.2721 21.3527C8.02711 33.361 8.02708 52.8304 20.272 64.8387C32.517 76.8471 52.37 76.847 64.615 64.8387Z" fill="#5D492C"/>
<path opacity="0.74" d="M41.9809 73.9833C59.1318 73.9833 73.0355 60.3483 73.0355 43.5288C73.0355 26.7092 59.1318 13.0742 41.9809 13.0742C24.8299 13.0742 10.9263 26.7092 10.9263 43.5288C10.9263 60.3483 24.8299 73.9833 41.9809 73.9833Z" fill="#534127"/>
<path opacity="0.7" d="M41.5075 74.1223C58.4925 74.1223 72.2616 60.6193 72.2616 43.9625C72.2616 27.3057 58.4925 13.8027 41.5075 13.8027C24.5225 13.8027 10.7534 27.3057 10.7534 43.9625C10.7534 60.6193 24.5225 74.1223 41.5075 74.1223Z" fill="#4A3A23"/>
<path opacity="0.66" d="M70.6794 51.1093C74.4677 35.0433 64.2579 19.0077 47.8754 15.2926C31.4928 11.5776 15.1411 21.59 11.3529 37.656C7.56463 53.722 17.7744 69.7577 34.1569 73.4728C50.5395 77.1878 66.8912 67.1753 70.6794 51.1093Z" fill="#41331F"/>
<path opacity="0.62" d="M40.5683 74.3876C57.2172 74.3876 70.7138 61.1518 70.7138 44.8246C70.7138 28.4975 57.2172 15.2617 40.5683 15.2617C23.9195 15.2617 10.4229 28.4975 10.4229 44.8246C10.4229 61.1518 23.9195 74.3876 40.5683 74.3876Z" fill="#382C1A"/>
<path opacity="0.59" d="M69.5294 50.0581C72.2328 34.1126 61.2433 19.0371 44.9837 16.3859C28.724 13.7347 13.3514 24.5118 10.6479 40.4573C7.9445 56.4027 18.934 71.4783 35.1937 74.1295C51.4533 76.7807 66.826 66.0035 69.5294 50.0581Z" fill="#2E2416"/>
<path opacity="0.55" d="M68.464 52.0998C72.0614 36.4961 62.0792 20.9869 46.1681 17.4591C30.2569 13.9312 14.4421 23.7205 10.8447 39.3242C7.24733 54.9279 17.2296 70.4371 33.1407 73.965C49.0518 77.4928 64.8666 67.7035 68.464 52.0998Z" fill="#251D12"/>
<path opacity="0.51" d="M39.1557 74.8006C55.3025 74.8006 68.392 61.9641 68.392 46.1293C68.392 30.2946 55.3025 17.458 39.1557 17.458C23.009 17.458 9.91943 30.2946 9.91943 46.1293C9.91943 61.9641 23.009 74.8006 39.1557 74.8006Z" fill="#1C160D"/>
<path opacity="0.48" d="M59.1402 66.6209C70.4403 55.5392 70.4403 37.5721 59.1402 26.4904C47.8401 15.4086 29.5191 15.4086 18.219 26.4904C6.91885 37.5721 6.91884 55.5392 18.2189 66.6209C29.519 77.7027 47.8401 77.7027 59.1402 66.6209Z" fill="#130F09"/>
<path opacity="0.44" d="M66.5209 51.406C68.997 36.0923 58.3453 21.7096 42.7298 19.2814C27.1142 16.8532 12.4481 27.299 9.97206 42.6127C7.49601 57.9265 18.1477 72.3093 33.7632 74.7375C49.3787 77.1657 64.0448 66.7198 66.5209 51.406Z" fill="#090704"/>
<path opacity="0.4" d="M37.7431 75.2059C53.3878 75.2059 66.0702 62.7685 66.0702 47.4262C66.0702 32.0839 53.3878 19.6465 37.7431 19.6465C22.0985 19.6465 9.41602 32.0839 9.41602 47.4262C9.41602 62.7685 22.0985 75.2059 37.7431 75.2059Z" fill="black"/>
</g>
</g>
<path d="M74.7112 44.5811C62.4862 44.5811 52.1922 52.6129 48.9688 63.5774C47.1129 62.9289 45.1292 62.5605 43.0479 62.5605C33.3025 62.5605 25.3979 70.3123 25.3979 79.8694C25.3979 89.4265 33.3025 97.1783 43.0479 97.1783H74.7186C89.5284 97.1783 101.535 85.4032 101.535 70.8797C101.535 56.3561 89.5284 44.5811 74.7186 44.5811H74.7112Z" fill="white"/>
<path d="M76.1462 45.9893C63.9212 45.9893 53.6348 54.0137 50.4039 64.9856C48.5479 64.3371 46.5643 63.9687 44.483 63.9687C34.7375 63.9687 26.833 71.7205 26.833 81.2776C26.833 90.8347 34.7375 98.5865 44.483 98.5865H76.1537C90.9635 98.5865 102.971 86.8115 102.971 72.2879C102.971 57.7643 90.9635 45.9893 76.1537 45.9893H76.1462Z" fill="white"/>
<mask id="mask2_176_5657" style="mask-type:luminance" maskUnits="userSpaceOnUse" x="26" y="45" width="77" height="53">
<path d="M75.4997 45.354C63.2747 45.354 52.9808 53.3785 49.7574 64.3504C47.9015 63.7019 45.9178 63.3261 43.8365 63.3261C34.0911 63.3261 26.1865 71.0779 26.1865 80.635C26.1865 90.1921 34.0911 97.9439 43.8365 97.9439H75.5073C90.317 97.9439 102.324 86.1689 102.324 71.6453C102.324 57.1217 90.317 45.3467 75.5073 45.3467L75.4997 45.354Z" fill="white"/>
</mask>
<g mask="url(#mask2_176_5657)">
<path d="M75.4992 45.354C63.2743 45.354 52.9803 53.3785 49.7569 64.3504C47.901 63.7019 45.9173 63.3261 43.836 63.3261C34.0906 63.3261 26.186 71.0779 26.186 80.635C26.186 90.1921 34.0906 97.9439 43.836 97.9439H75.5068C90.3165 97.9439 102.324 86.1689 102.324 71.6453C102.324 57.1217 90.3165 45.3467 75.5068 45.3467L75.4992 45.354Z" fill="url(#paint2_linear_176_5657)"/>
<g style="mix-blend-mode:multiply" opacity="0.4">
<path d="M45.3765 93.4711C73.1841 93.4711 95.7266 71.3642 95.7266 44.094C95.7266 16.8237 73.1841 -5.2832 45.3765 -5.2832C17.5689 -5.2832 -4.97363 16.8237 -4.97363 44.094C-4.97363 71.3642 17.5689 93.4711 45.3765 93.4711Z" fill="white"/>
</g>
<g style="mix-blend-mode:multiply" opacity="0.44">
<path d="M45.3767 92.1525C72.4415 92.1525 94.3819 70.6361 94.3819 44.0943C94.3819 17.5525 72.4415 -3.96387 45.3767 -3.96387C18.3119 -3.96387 -3.62842 17.5525 -3.62842 44.0943C-3.62842 70.6361 18.3119 92.1525 45.3767 92.1525Z" fill="#FFFDFA"/>
</g>
<g style="mix-blend-mode:multiply" opacity="0.48">
<path d="M45.3763 90.8269C71.6941 90.8269 93.0289 69.9044 93.0289 44.0951C93.0289 18.2858 71.6941 -2.63672 45.3763 -2.63672C19.0584 -2.63672 -2.27637 18.2858 -2.27637 44.0951C-2.27637 69.9044 19.0584 90.8269 45.3763 90.8269Z" fill="#FFFBF5"/>
</g>
<g style="mix-blend-mode:multiply" opacity="0.51">
<path d="M45.3768 89.5004C70.9477 89.5004 91.677 69.1717 91.677 44.0949C91.677 19.0182 70.9477 -1.31055 45.3768 -1.31055C19.8059 -1.31055 -0.92334 19.0182 -0.92334 44.0949C-0.92334 69.1717 19.8059 89.5004 45.3768 89.5004Z" fill="#FFF9F0"/>
</g>
<g style="mix-blend-mode:multiply" opacity="0.55">
<path d="M45.3764 88.1729C70.2003 88.1729 90.3241 68.438 90.3241 44.0938C90.3241 19.7495 70.2003 0.0146484 45.3764 0.0146484C20.5525 0.0146484 0.428711 19.7495 0.428711 44.0938C0.428711 68.438 20.5525 88.1729 45.3764 88.1729Z" fill="#FFF7EB"/>
</g>
<g style="mix-blend-mode:multiply" opacity="0.59">
<path d="M45.3766 86.8543C69.4577 86.8543 88.9793 67.7099 88.9793 44.0941C88.9793 20.4783 69.4577 1.33398 45.3766 1.33398C21.2955 1.33398 1.77393 20.4783 1.77393 44.0941C1.77393 67.7099 21.2955 86.8543 45.3766 86.8543Z" fill="#FFF5E5"/>
</g>
<g style="mix-blend-mode:multiply" opacity="0.62">
<path d="M45.3767 85.5277C68.7108 85.5277 87.6269 66.9772 87.6269 44.0939C87.6269 21.2107 68.7108 2.66016 45.3767 2.66016C22.0425 2.66016 3.12646 21.2107 3.12646 44.0939C3.12646 66.9772 22.0425 85.5277 45.3767 85.5277Z" fill="#FFF3E0"/>
</g>
<g style="mix-blend-mode:multiply" opacity="0.66">
<path d="M45.3762 84.2022C67.9634 84.2022 86.274 66.2455 86.274 44.0947C86.274 21.944 67.9634 3.9873 45.3762 3.9873C22.789 3.9873 4.47852 21.944 4.47852 44.0947C4.47852 66.2455 22.789 84.2022 45.3762 84.2022Z" fill="#FFF1DB"/>
</g>
<g style="mix-blend-mode:multiply" opacity="0.7">
<path d="M73.3484 71.5194C88.7947 56.3715 88.7947 31.812 73.3484 16.6642C57.9021 1.51638 32.8587 1.51638 17.4124 16.6642C1.96605 31.812 1.96604 56.3715 17.4124 71.5194C32.8587 86.6672 57.9021 86.6672 73.3484 71.5194Z" fill="#FFEFD6"/>
</g>
<g style="mix-blend-mode:multiply" opacity="0.74">
<path d="M45.377 81.556C66.4744 81.556 83.5773 64.7837 83.5773 44.0939C83.5773 23.4042 66.4744 6.63184 45.377 6.63184C24.2796 6.63184 7.17676 23.4042 7.17676 44.0939C7.17676 64.7837 24.2796 81.556 45.377 81.556Z" fill="#FFECD1"/>
</g>
<g style="mix-blend-mode:multiply" opacity="0.78">
<path d="M45.3766 80.2295C65.727 80.2295 82.2244 64.051 82.2244 44.0938C82.2244 24.1365 65.727 7.95801 45.3766 7.95801C25.0261 7.95801 8.52881 24.1365 8.52881 44.0938C8.52881 64.051 25.0261 80.2295 45.3766 80.2295Z" fill="#FFEACC"/>
</g>
<g style="mix-blend-mode:multiply" opacity="0.81">
<path d="M45.3763 78.9109C64.984 78.9109 80.8791 63.3229 80.8791 44.0941C80.8791 24.8653 64.984 9.27734 45.3763 9.27734C25.7687 9.27734 9.87354 24.8653 9.87354 44.0941C9.87354 63.3229 25.7687 78.9109 45.3763 78.9109Z" fill="#FFE8C7"/>
</g>
<g style="mix-blend-mode:multiply" opacity="0.85">
<path d="M45.3764 77.5843C64.2371 77.5843 79.5267 62.5902 79.5267 44.0939C79.5267 25.5977 64.2371 10.6035 45.3764 10.6035C26.5157 10.6035 11.2261 25.5977 11.2261 44.0939C11.2261 62.5902 26.5157 77.5843 45.3764 77.5843Z" fill="#FFE6C2"/>
</g>
<g style="mix-blend-mode:multiply" opacity="0.89">
<path d="M45.3769 76.2588C63.4906 76.2588 78.1747 61.8584 78.1747 44.0947C78.1747 26.331 63.4906 11.9307 45.3769 11.9307C27.2632 11.9307 12.5791 26.331 12.5791 44.0947C12.5791 61.8584 27.2632 76.2588 45.3769 76.2588Z" fill="#FFE4BC"/>
</g>
<g style="mix-blend-mode:multiply" opacity="0.93">
<path d="M45.376 74.9313C62.7428 74.9313 76.8213 61.1248 76.8213 44.0936C76.8213 27.0624 62.7428 13.2559 45.376 13.2559C28.0092 13.2559 13.9307 27.0624 13.9307 44.0936C13.9307 61.1248 28.0092 74.9313 45.376 74.9313Z" fill="#FFE2B7"/>
</g>
<g style="mix-blend-mode:multiply" opacity="0.96">
<path d="M45.3762 73.6136C62.0002 73.6136 75.4766 60.3976 75.4766 44.0949C75.4766 27.7921 62.0002 14.5762 45.3762 14.5762C28.7523 14.5762 15.2759 27.7921 15.2759 44.0949C15.2759 60.3976 28.7523 73.6136 45.3762 73.6136Z" fill="#FFE0B2"/>
</g>
<g style="mix-blend-mode:multiply">
<path d="M45.3763 72.2861C61.2533 72.2861 74.1242 59.6639 74.1242 44.0937C74.1242 28.5235 61.2533 15.9014 45.3763 15.9014C29.4993 15.9014 16.6284 28.5235 16.6284 44.0937C16.6284 59.6639 29.4993 72.2861 45.3763 72.2861Z" fill="#FFDEAD"/>
</g>
<g style="mix-blend-mode:multiply">
<path d="M45.3763 71.9629C61.0707 71.9629 73.7935 59.4859 73.7935 44.0947C73.7935 28.7036 61.0707 16.2266 45.3763 16.2266C29.6818 16.2266 16.959 28.7036 16.959 44.0947C16.959 59.4859 29.6818 71.9629 45.3763 71.9629Z" fill="#FFDDAB"/>
</g>
<g style="mix-blend-mode:multiply">
<path d="M45.3767 71.6386C60.8885 71.6386 73.4634 59.3068 73.4634 44.0947C73.4634 28.8826 60.8885 16.5508 45.3767 16.5508C29.8649 16.5508 17.29 28.8826 17.29 44.0947C17.29 59.3068 29.8649 71.6386 45.3767 71.6386Z" fill="#FFDCA8"/>
</g>
<g style="mix-blend-mode:multiply">
<path d="M45.3764 71.3213C60.7098 71.3213 73.1399 59.1314 73.1399 44.0943C73.1399 29.0572 60.7098 16.8672 45.3764 16.8672C30.043 16.8672 17.6128 29.0572 17.6128 44.0943C17.6128 59.1314 30.043 71.3213 45.3764 71.3213Z" fill="#FFDBA6"/>
</g>
<g style="mix-blend-mode:multiply">
<path d="M45.3768 70.9971C60.5276 70.9971 72.8098 58.9523 72.8098 44.0943C72.8098 29.2362 60.5276 17.1914 45.3768 17.1914C30.226 17.1914 17.9438 29.2362 17.9438 44.0943C17.9438 58.9523 30.226 70.9971 45.3768 70.9971Z" fill="#FFDAA3"/>
</g>
<g style="mix-blend-mode:multiply">
<path d="M45.3763 70.6729C60.3445 70.6729 72.4786 58.7732 72.4786 44.0943C72.4786 29.4153 60.3445 17.5156 45.3763 17.5156C30.4081 17.5156 18.2739 29.4153 18.2739 44.0943C18.2739 58.7732 30.4081 70.6729 45.3763 70.6729Z" fill="#FFD9A1"/>
</g>
<g style="mix-blend-mode:multiply">
<path d="M45.3767 70.3497C60.1624 70.3497 72.1485 58.5952 72.1485 44.0952C72.1485 29.5953 60.1624 17.8408 45.3767 17.8408C30.5911 17.8408 18.605 29.5953 18.605 44.0952C18.605 58.5952 30.5911 70.3497 45.3767 70.3497Z" fill="#FFD89E"/>
</g>
<g style="mix-blend-mode:multiply">
<path d="M45.3764 70.0323C59.9836 70.0323 71.825 58.4197 71.825 44.0948C71.825 29.7699 59.9836 18.1572 45.3764 18.1572C30.7692 18.1572 18.9277 29.7699 18.9277 44.0948C18.9277 58.4197 30.7692 70.0323 45.3764 70.0323Z" fill="#FFD79C"/>
</g>
<g style="mix-blend-mode:multiply">
<path d="M45.3768 69.7081C59.8014 69.7081 71.4949 58.2407 71.4949 44.0948C71.4949 29.9489 59.8014 18.4814 45.3768 18.4814C30.9522 18.4814 19.2588 29.9489 19.2588 44.0948C19.2588 58.2407 30.9522 69.7081 45.3768 69.7081Z" fill="#FFD699"/>
</g>
<g style="mix-blend-mode:multiply">
<path d="M45.3763 69.3829C59.6183 69.3829 71.1637 58.0606 71.1637 44.0938C71.1637 30.127 59.6183 18.8047 45.3763 18.8047C31.1343 18.8047 19.5889 30.127 19.5889 44.0938C19.5889 58.0606 31.1343 69.3829 45.3763 69.3829Z" fill="#FFD597"/>
</g>
<g style="mix-blend-mode:multiply">
<path d="M45.3763 69.0587C59.4357 69.0587 70.8331 57.8815 70.8331 44.0938C70.8331 30.3061 59.4357 19.1289 45.3763 19.1289C31.3168 19.1289 19.9194 30.3061 19.9194 44.0938C19.9194 57.8815 31.3168 69.0587 45.3763 69.0587Z" fill="#FFD494"/>
</g>
<g style="mix-blend-mode:multiply">
<path d="M45.3764 68.7424C59.2574 68.7424 70.5102 57.7071 70.5102 44.0943C70.5102 30.4816 59.2574 19.4463 45.3764 19.4463C31.4954 19.4463 20.2427 30.4816 20.2427 44.0943C20.2427 57.7071 31.4954 68.7424 45.3764 68.7424Z" fill="#FFD392"/>
</g>
<g style="mix-blend-mode:multiply">
<path d="M45.3764 68.4182C59.0748 68.4182 70.1795 57.528 70.1795 44.0943C70.1795 30.6607 59.0748 19.7705 45.3764 19.7705C31.678 19.7705 20.5732 30.6607 20.5732 44.0943C20.5732 57.528 31.678 68.4182 45.3764 68.4182Z" fill="#FFD28F"/>
</g>
<g style="mix-blend-mode:multiply">
<path d="M45.3763 68.094C58.8921 68.094 69.8488 57.349 69.8488 44.0943C69.8488 30.8397 58.8921 20.0947 45.3763 20.0947C31.8605 20.0947 20.9038 30.8397 20.9038 44.0943C20.9038 57.349 31.8605 68.094 45.3763 68.094Z" fill="#FFD18D"/>
</g>
<g style="mix-blend-mode:multiply">
<path d="M45.3768 67.7697C58.71 67.7697 69.5187 57.1699 69.5187 44.0943C69.5187 31.0188 58.71 20.4189 45.3768 20.4189C32.0436 20.4189 21.2349 31.0188 21.2349 44.0943C21.2349 57.1699 32.0436 67.7697 45.3768 67.7697Z" fill="#FFD08A"/>
</g>
<g style="mix-blend-mode:multiply">
<path d="M45.3764 67.4524C58.5312 67.4524 69.1953 56.9945 69.1953 44.0939C69.1953 31.1933 58.5312 20.7354 45.3764 20.7354C32.2217 20.7354 21.5576 31.1933 21.5576 44.0939C21.5576 56.9945 32.2217 67.4524 45.3764 67.4524Z" fill="#FFCF88"/>
</g>
<g style="mix-blend-mode:multiply">
<path d="M45.3764 67.1292C58.3486 67.1292 68.8646 56.8164 68.8646 44.0949C68.8646 31.3734 58.3486 21.0605 45.3764 21.0605C32.4042 21.0605 21.8882 31.3734 21.8882 44.0949C21.8882 56.8164 32.4042 67.1292 45.3764 67.1292Z" fill="#FFCE85"/>
</g>
<g style="mix-blend-mode:screen">
<g style="mix-blend-mode:multiply" opacity="0.4">
<path d="M45.3769 96.1825C74.7116 96.1825 98.4921 72.8616 98.4921 44.0937C98.4921 15.3258 74.7116 -7.99512 45.3769 -7.99512C16.0422 -7.99512 -7.73828 15.3258 -7.73828 44.0937C-7.73828 72.8616 16.0422 96.1825 45.3769 96.1825Z" fill="black"/>
</g>
<g style="mix-blend-mode:multiply" opacity="0.44">
<path d="M45.3768 94.9449C74.0144 94.9449 97.2297 72.1782 97.2297 44.0941C97.2297 16.0099 74.0144 -6.75684 45.3768 -6.75684C16.7393 -6.75684 -6.47607 16.0099 -6.47607 44.0941C-6.47607 72.1782 16.7393 94.9449 45.3768 94.9449Z" fill="#0C0A03"/>
</g>
<g style="mix-blend-mode:multiply" opacity="0.48">
<path d="M45.3767 93.7073C73.3171 93.7073 95.9673 71.4949 95.9673 44.0944C95.9673 16.6939 73.3171 -5.51855 45.3767 -5.51855C17.4363 -5.51855 -5.21387 16.6939 -5.21387 44.0944C-5.21387 71.4949 17.4363 93.7073 45.3767 93.7073Z" fill="#171405"/>
</g>
<g style="mix-blend-mode:multiply" opacity="0.51">
<path d="M45.3769 92.4609C72.616 92.4609 94.6976 70.806 94.6976 44.0932C94.6976 17.3805 72.616 -4.27441 45.3769 -4.27441C18.1378 -4.27441 -3.94385 17.3805 -3.94385 44.0932C-3.94385 70.806 18.1378 92.4609 45.3769 92.4609Z" fill="#231E08"/>
</g>
<g style="mix-blend-mode:multiply" opacity="0.55">
<path d="M45.3767 91.2233C71.9186 91.2233 93.4351 70.1226 93.4351 44.0936C93.4351 18.0646 71.9186 -3.03613 45.3767 -3.03613C18.8348 -3.03613 -2.68164 18.0646 -2.68164 44.0936C-2.68164 70.1226 18.8348 91.2233 45.3767 91.2233Z" fill="#2E280A"/>
</g>
<g style="mix-blend-mode:multiply" opacity="0.59">
<path d="M45.3771 89.9857C71.2219 89.9857 92.1732 69.4393 92.1732 44.0939C92.1732 18.7486 71.2219 -1.79785 45.3771 -1.79785C19.5323 -1.79785 -1.41895 18.7486 -1.41895 44.0939C-1.41895 69.4393 19.5323 89.9857 45.3771 89.9857Z" fill="#3A320D"/>
</g>
<g style="mix-blend-mode:multiply" opacity="0.62">
<path d="M45.3768 88.7412C70.5202 88.7412 90.9031 68.7523 90.9031 44.0947C90.9031 19.4372 70.5202 -0.551758 45.3768 -0.551758C20.2334 -0.551758 -0.149414 19.4372 -0.149414 44.0947C-0.149414 68.7523 20.2334 88.7412 45.3768 88.7412Z" fill="#453C0F"/>
</g>
<g style="mix-blend-mode:multiply" opacity="0.66">
<path d="M45.3772 87.5017C69.8235 87.5017 89.6411 68.067 89.6411 44.0931C89.6411 20.1193 69.8235 0.68457 45.3772 0.68457C20.9309 0.68457 1.11328 20.1193 1.11328 44.0931C1.11328 68.067 20.9309 87.5017 45.3772 87.5017Z" fill="#514612"/>
</g>
<g style="mix-blend-mode:multiply" opacity="0.7">
<path d="M87.2499 53.7694C92.6932 31.0992 78.3659 8.39395 55.249 3.05582C32.1321 -2.2823 8.97946 11.7681 3.53615 34.4383C-1.90715 57.1085 12.4201 79.8137 35.537 85.1519C58.6539 90.49 81.8066 76.4396 87.2499 53.7694Z" fill="#5C5014"/>
</g>
<g style="mix-blend-mode:multiply" opacity="0.74">
<path d="M45.3768 85.0197C68.4246 85.0197 87.1086 66.6968 87.1086 44.0943C87.1086 21.4919 68.4246 3.16895 45.3768 3.16895C22.3289 3.16895 3.64502 21.4919 3.64502 44.0943C3.64502 66.6968 22.3289 85.0197 45.3768 85.0197Z" fill="#685916"/>
</g>
<g style="mix-blend-mode:multiply" opacity="0.78">
<path d="M45.3771 83.7811C67.7278 83.7811 85.8466 66.0124 85.8466 44.0937C85.8466 22.1749 67.7278 4.40625 45.3771 4.40625C23.0265 4.40625 4.90771 22.1749 4.90771 44.0937C4.90771 66.0124 23.0265 83.7811 45.3771 83.7811Z" fill="#736319"/>
</g>
<g style="mix-blend-mode:multiply" opacity="0.81">
<path d="M45.377 82.5435C67.0305 82.5435 84.5841 65.3291 84.5841 44.094C84.5841 22.859 67.0305 5.64453 45.377 5.64453C23.7235 5.64453 6.16992 22.859 6.16992 44.094C6.16992 65.3291 23.7235 82.5435 45.377 82.5435Z" fill="#7F6D1C"/>
</g>
<g style="mix-blend-mode:multiply" opacity="0.85">
<path d="M45.3772 81.298C66.3294 81.298 83.3145 64.6411 83.3145 44.0938C83.3145 23.5465 66.3294 6.88965 45.3772 6.88965C24.425 6.88965 7.43994 23.5465 7.43994 44.0938C7.43994 64.6411 24.425 81.298 45.3772 81.298Z" fill="#8A771E"/>
</g>
<g style="mix-blend-mode:multiply" opacity="0.89">
<path d="M45.3771 80.0604C65.6321 80.0604 82.0521 63.9578 82.0521 44.0942C82.0521 24.2306 65.6321 8.12793 45.3771 8.12793C25.1221 8.12793 8.70215 24.2306 8.70215 44.0942C8.70215 63.9578 25.1221 80.0604 45.3771 80.0604Z" fill="#968121"/>
</g>
<g style="mix-blend-mode:multiply" opacity="0.93">
<path d="M45.377 78.8219C64.9349 78.8219 80.7896 63.2735 80.7896 44.0936C80.7896 24.9136 64.9349 9.36523 45.377 9.36523C25.8191 9.36523 9.96436 24.9136 9.96436 44.0936C9.96436 63.2735 25.8191 78.8219 45.377 78.8219Z" fill="#A18B23"/>
</g>
<g style="mix-blend-mode:multiply" opacity="0.96">
<path d="M45.3772 77.5774C64.2337 77.5774 79.52 62.5865 79.52 44.0944C79.52 25.6022 64.2337 10.6113 45.3772 10.6113C26.5206 10.6113 11.2344 25.6022 11.2344 44.0944C11.2344 62.5865 26.5206 77.5774 45.3772 77.5774Z" fill="#AD9526"/>
</g>
<g style="mix-blend-mode:multiply">
<path d="M45.3766 76.3389C63.536 76.3389 78.2571 61.9022 78.2571 44.0937C78.2571 26.2853 63.536 11.8486 45.3766 11.8486C27.2172 11.8486 12.4961 26.2853 12.4961 44.0937C12.4961 61.9022 27.2172 76.3389 45.3766 76.3389Z" fill="#B89F28"/>
</g>
<g style="mix-blend-mode:multiply">
<path d="M45.377 75.7131C63.1837 75.7131 77.6189 61.5569 77.6189 44.0944C77.6189 26.6318 63.1837 12.4756 45.377 12.4756C27.5704 12.4756 13.1353 26.6318 13.1353 44.0944C13.1353 61.5569 27.5704 75.7131 45.377 75.7131Z" fill="#BCA026"/>
</g>
<g style="mix-blend-mode:multiply">
<path d="M56.9472 72.9536C73.1938 66.6872 81.1843 48.6912 74.7944 32.7585C68.4045 16.8258 50.054 8.98975 33.8073 15.2562C17.5607 21.5226 9.57018 39.5186 15.9601 55.4513C22.35 71.384 40.7005 79.22 56.9472 72.9536Z" fill="#C1A023"/>
</g>
<g style="mix-blend-mode:multiply">
<path d="M56.7139 72.3706C72.6323 66.2308 80.4613 48.5985 74.2005 32.9877C67.9397 17.3769 49.9599 9.69913 34.0415 15.8389C18.1231 21.9788 10.2941 39.6111 16.5549 55.2219C22.8157 70.8327 40.7955 78.5104 56.7139 72.3706Z" fill="#C5A121"/>
</g>
<g style="mix-blend-mode:multiply">
<path d="M56.4801 71.7876C72.0703 65.7744 79.7379 48.5057 73.6062 33.2168C67.4745 17.9279 49.8655 10.4085 34.2753 16.4217C18.6852 22.4349 11.0176 39.7037 17.1493 54.9925C23.281 70.2814 40.89 77.8009 56.4801 71.7876Z" fill="#CAA21E"/>
</g>
<g style="mix-blend-mode:multiply">
<path d="M56.0677 71.2375C71.3719 65.4462 78.9912 48.5846 73.0858 33.5762C67.1804 18.5677 49.9866 11.0957 34.6824 16.887C19.3782 22.6783 11.759 39.5398 17.6644 54.5483C23.5697 69.5567 40.7635 77.0288 56.0677 71.2375Z" fill="#CEA21C"/>
</g>
<g style="mix-blend-mode:multiply">
<path d="M56.2572 70.4904C71.1418 64.5988 78.3379 47.9895 72.3302 33.3925C66.3224 18.7955 49.3859 11.7385 34.5013 17.6301C19.6166 23.5217 12.4205 40.131 18.4282 54.728C24.436 69.325 41.3726 76.3821 56.2572 70.4904Z" fill="#D3A319"/>
</g>
<g style="mix-blend-mode:multiply">
<path d="M58.5767 68.7634C72.4799 61.6142 77.841 44.7656 70.5509 31.131C63.2608 17.4964 46.0802 12.239 32.177 19.3882C18.2737 26.5374 12.9127 43.386 20.2028 57.0206C27.4929 70.6552 44.6734 75.9126 58.5767 68.7634Z" fill="#D7A416"/>
</g>
<g style="mix-blend-mode:multiply">
<path d="M58.3274 68.2208C71.9057 61.209 77.117 44.73 69.967 31.414C62.817 18.098 46.0133 12.9875 32.435 19.9993C18.8566 27.0111 13.6453 43.4901 20.7953 56.8061C27.9453 70.1221 44.749 75.2326 58.3274 68.2208Z" fill="#DCA414"/>
</g>
<g style="mix-blend-mode:multiply">
<path d="M50.4551 70.2165C65.1887 67.4707 74.8628 53.5316 72.0629 39.0828C69.263 24.6339 55.0493 15.1467 40.3157 17.8925C25.5821 20.6383 15.908 34.5774 18.7079 49.0263C21.5078 63.4751 35.7215 72.9623 50.4551 70.2165Z" fill="#E0A512"/>
</g>
<g style="mix-blend-mode:multiply">
<path d="M55.3732 68.1641C68.937 62.7493 75.4566 47.5767 69.9351 34.275C64.4136 20.9733 48.942 14.5798 35.3782 19.9945C21.8144 25.4093 15.2949 40.582 20.8164 53.8836C26.3378 67.1853 41.8094 73.5789 55.3732 68.1641Z" fill="#E4A60F"/>
</g>
<g style="mix-blend-mode:multiply">
<path d="M55.2142 67.6088C68.4343 62.2837 74.7494 47.457 69.3194 34.4923C63.8893 21.5277 48.7704 15.3347 35.5503 20.6598C22.3303 25.9849 16.0152 40.8117 21.4452 53.7763C26.8753 66.7409 41.9942 72.9339 55.2142 67.6088Z" fill="#E9A70D"/>
</g>
<g style="mix-blend-mode:multiply">
<path d="M54.9347 66.9763C67.8407 61.8009 74.0249 47.3453 68.7476 34.6888C63.4702 22.0322 48.7298 15.9675 35.8238 21.1429C22.9179 26.3182 16.7337 40.7738 22.011 53.4304C27.2883 66.0869 42.0288 72.1516 54.9347 66.9763Z" fill="#EDA70A"/>
</g>
<g style="mix-blend-mode:multiply">
<path d="M54.6931 66.3966C67.2726 61.3522 73.3003 47.2623 68.1565 34.9259C63.0127 22.5896 48.6451 16.6783 36.0657 21.7227C23.4862 26.7671 17.4585 40.857 22.6023 53.1934C27.7461 65.5298 42.1137 71.4411 54.6931 66.3966Z" fill="#F2A808"/>
</g>
<g style="mix-blend-mode:multiply">
<path d="M54.4515 65.817C66.7044 60.9035 72.5758 47.1793 67.5655 35.1631C62.5551 23.1469 48.5605 17.389 36.3075 22.3025C24.0545 27.216 18.1833 40.9403 23.1936 52.9565C28.2039 64.9726 42.1985 70.7305 54.4515 65.817Z" fill="#F6A905"/>
</g>
<g style="mix-blend-mode:multiply">
<path d="M68.7149 44.093C68.7149 56.7302 58.2707 66.98 45.377 66.98C32.4833 66.98 22.0391 56.7376 22.0391 44.093C22.0391 31.4484 32.4833 21.2061 45.377 21.2061C58.2707 21.2061 68.7149 31.4484 68.7149 44.093Z" fill="#FBA903"/>
</g>
<g style="mix-blend-mode:multiply">
<path d="M68.0757 44.0946C68.0757 56.3855 57.9095 66.3552 45.3765 66.3552C32.8434 66.3552 22.6772 56.3928 22.6772 44.0946C22.6772 31.7964 32.8434 21.834 45.3765 21.834C57.9095 21.834 68.0757 31.7964 68.0757 44.0946Z" fill="#FFAA00"/>
</g>
</g>
<g style="mix-blend-mode:screen">
<path d="M80.594 45.8117C67.3171 43.4169 55.4002 50.6234 50.7641 61.5511C50.1104 63.0837 48.4199 63.8501 46.7593 63.57C44.2347 63.1427 41.5297 63.2458 38.727 64.0785C32.453 65.9354 27.584 71.2113 26.472 77.541C24.5409 88.4613 33.0691 97.9447 43.8439 97.9447H75.5147C92.0901 97.9447 105.149 83.2001 101.806 66.3554C99.7468 56.0098 91.181 47.7128 80.6091 45.8117H80.594Z" fill="#6686BA"/>
<path opacity="0.95" d="M79.9399 45.1408C66.663 42.746 54.7461 49.9525 50.11 60.8802C49.4563 62.4128 47.7657 63.1792 46.0977 62.8992C43.573 62.4718 40.8681 62.5749 38.0654 63.4076C31.7914 65.2645 26.9224 70.5404 25.8104 76.8701C23.8793 87.7904 32.4075 97.2738 43.1823 97.2738H74.853C91.4285 97.2738 104.488 82.5292 101.144 65.6845C99.0851 55.3389 90.5194 47.0419 79.9474 45.1408H79.9399Z" fill="#607EAE"/>
<path opacity="0.9" d="M79.2869 44.4708C66.01 42.076 54.093 49.2826 49.457 60.2102C48.8033 61.7429 47.1127 62.5166 45.4522 62.2292C42.9275 61.8018 40.2225 61.905 37.4199 62.7377C31.1459 64.5946 26.2769 69.8705 25.1649 76.2002C23.2338 87.1205 31.7619 96.6039 42.5443 96.6039H74.215C90.7905 96.6039 103.85 81.8592 100.506 65.0146C98.4471 54.669 89.8814 46.372 79.3094 44.4708H79.2869Z" fill="#5975A3"/>
<path opacity="0.85" d="M78.6331 43.8078C65.3562 41.413 53.4393 48.6195 48.8032 59.5471C48.1495 61.0798 46.4589 61.8535 44.7984 61.5661C42.2737 61.1388 39.5688 61.2419 36.7661 62.0746C30.4921 63.9315 25.6231 69.2074 24.511 75.5371C22.58 86.4574 31.1082 95.9408 41.8905 95.9408H73.5613C90.1368 95.9408 103.196 81.1962 99.8521 64.3515C97.7934 54.0059 89.2276 45.7089 78.6557 43.8078H78.6331Z" fill="#536D97"/>
<path opacity="0.8" d="M77.9788 43.1369C64.7019 40.7421 52.785 47.9486 48.1489 58.8762C47.4952 60.4089 45.8046 61.1826 44.1441 60.8952C41.6194 60.4679 38.9144 60.571 36.1118 61.4037C29.8377 63.2606 24.9688 68.5365 23.8567 74.8662C21.9257 85.7865 30.4539 95.2699 41.2362 95.2699H72.907C89.4825 95.2699 102.541 80.5253 99.1978 63.6806C97.1391 53.335 88.5733 45.038 78.0013 43.1369H77.9788Z" fill="#4D658B"/>
<path opacity="0.75" d="M77.3255 42.4669C64.0486 40.0721 52.1316 47.2787 47.4956 58.2063C46.8419 59.739 45.1513 60.5127 43.4907 60.2253C40.9661 59.798 38.2611 59.9011 35.4585 60.7338C29.1844 62.5907 24.3155 67.8666 23.2034 74.1963C21.2724 85.1166 29.8006 94.6 40.5829 94.6H72.2537C88.8292 94.6 101.888 79.8553 98.5445 63.0107C96.4857 52.6651 87.92 44.368 77.348 42.4669H77.3255Z" fill="#465C80"/>
<path opacity="0.7" d="M76.6795 41.796C63.4026 39.4012 51.4856 46.6078 46.8496 57.5354C46.1959 59.0681 44.5053 59.8418 42.8447 59.5544C40.3201 59.1271 37.6151 59.2302 34.8125 60.0629C28.5384 61.9198 23.6695 67.1957 22.5574 73.5254C20.6264 84.4457 29.1546 93.9291 39.9369 93.9291H71.6077C88.1832 93.9291 101.242 79.1845 97.8985 62.3398C95.8397 51.9942 87.274 43.6971 76.702 41.796H76.6795Z" fill="#405474"/>
<path opacity="0.65" d="M76.0257 41.1251C62.7488 38.7303 50.8318 45.9369 46.1958 56.8645C45.5421 58.3972 43.8515 59.1709 42.1909 58.8835C39.6663 58.4561 36.9613 58.5593 34.1587 59.392C27.8846 61.2489 23.0157 66.5248 21.9036 72.8544C19.9726 83.7747 28.5008 93.2582 39.2831 93.2582H70.9539C87.5294 93.2582 100.588 78.5136 97.2447 61.6689C95.1859 51.3233 86.6202 43.0262 76.0482 41.1251H76.0257Z" fill="#394B69"/>
<path opacity="0.6" d="M75.3723 40.4542C62.0954 38.0594 50.1785 45.266 45.5425 56.1936C44.8888 57.7263 43.1982 58.5 41.5376 58.2126C39.013 57.7853 36.308 57.8884 33.5053 58.7211C27.2313 60.578 22.3623 65.8539 21.2503 72.1835C19.3192 83.1038 27.8474 92.5873 38.6298 92.5873H70.3005C86.876 92.5873 99.935 77.8427 96.5914 60.998C94.5326 50.6524 85.9668 42.3554 75.3949 40.4542H75.3723Z" fill="#33435D"/>
<path opacity="0.55" d="M74.718 39.7843C61.4411 37.3895 49.5242 44.596 44.8882 55.5237C44.2345 57.0564 42.5439 57.8301 40.8833 57.5427C38.3587 57.1153 35.6537 57.2185 32.851 58.0512C26.577 59.908 21.708 65.184 20.596 71.5136C18.665 82.4339 27.1931 91.9174 37.9755 91.9174H69.6462C86.2217 91.9174 99.2807 77.1727 95.9371 60.3281C93.8783 49.9825 85.3125 41.6854 74.7406 39.7843H74.718Z" fill="#2D3B51"/>
<path opacity="0.5" d="M74.0647 39.1144C60.7878 36.7196 48.8709 43.9261 44.2348 54.8538C43.5811 56.3865 41.8906 57.1602 40.23 56.8728C37.7054 56.4454 35.0004 56.5486 32.1977 57.3812C25.9237 59.2381 21.0547 64.5141 19.9427 70.8437C18.0116 81.764 26.5398 91.2474 37.3222 91.2474H68.9929C85.5684 91.2474 98.6274 76.5028 95.2837 59.6581C93.2249 49.3126 84.6592 41.0155 74.0873 39.1144H74.0647Z" fill="#263246"/>
<path opacity="0.45" d="M73.4109 38.4425C60.134 36.0477 48.217 43.2542 43.581 54.1819C42.9273 55.7146 41.2367 56.4883 39.5762 56.2009C37.0515 55.7735 34.3466 55.8767 31.5439 56.7093C25.2699 58.5662 20.4009 63.8422 19.2889 70.1718C17.3578 81.0921 25.886 90.5755 36.6683 90.5755H68.3391C84.9146 90.5755 97.9736 75.8309 94.6299 58.9862C92.5711 48.6407 84.0054 40.3436 73.4335 38.4425H73.4109Z" fill="#202A3A"/>
<path opacity="0.4" d="M72.7571 37.7726C59.4802 35.3778 47.5632 42.5843 42.9272 53.512C42.2735 55.0447 40.5829 55.8184 38.9224 55.531C36.3977 55.1036 33.6928 55.2068 30.8901 56.0394C24.6161 57.8963 19.7471 63.1723 18.6351 69.5019C16.704 80.4222 25.2322 89.9056 36.0145 89.9056H67.6853C84.2607 89.9056 97.3198 75.161 93.9761 58.3163C91.9173 47.9708 83.3516 39.6737 72.7797 37.7726H72.7571Z" fill="#1A222F"/>
<path opacity="0.35" d="M72.1111 37.1017C58.8342 34.7069 46.9173 41.9134 42.2813 52.8411C41.6276 54.3738 39.9369 55.1475 38.2764 54.8601C35.7517 54.4327 33.0468 54.5359 30.2441 55.3685C23.9701 57.2254 19.1011 62.5014 17.9891 68.831C16.058 79.7513 24.5862 89.2347 35.3685 89.2347H67.0393C83.6148 89.2347 96.6738 74.4901 93.3302 57.6454C91.2714 47.2999 82.7056 39.0028 72.1337 37.1017H72.1111Z" fill="#131923"/>
<path opacity="0.3" d="M71.4573 36.4318C58.1804 34.037 46.2635 41.2435 41.6275 52.1712C40.9738 53.7038 39.2831 54.4776 37.6226 54.1902C35.0979 53.7628 32.393 53.866 29.5903 54.6986C23.3163 56.5555 18.4473 61.8314 17.3353 68.1611C15.4042 79.0814 23.9324 88.5648 34.7147 88.5648H66.3855C82.961 88.5648 96.02 73.8202 92.6764 56.9755C90.6176 46.63 82.0518 38.3329 71.4798 36.4318H71.4573Z" fill="#0D1117"/>
<path opacity="0.25" d="M70.8035 35.7609C57.5266 33.3661 45.6097 40.5726 40.9736 51.5003C40.3199 53.0329 38.6293 53.8066 36.9688 53.5193C34.4441 53.0919 31.7391 53.195 28.9365 54.0277C22.6625 55.8772 17.7935 61.1605 16.6815 67.4902C14.7504 78.4105 23.2786 87.8939 34.0609 87.8939H65.7317C82.3072 87.8939 95.3662 73.1493 92.0225 56.3046C89.9638 45.9591 81.398 37.662 70.826 35.7609H70.8035Z" fill="#06080C"/>
<path opacity="0.2" d="M70.1499 35.09C56.873 32.6952 44.9561 39.9017 40.32 50.8294C39.6663 52.362 37.9757 53.1357 36.3076 52.8484C33.783 52.421 31.078 52.5242 28.2754 53.3568C22.0013 55.2063 17.1324 60.4896 16.0203 66.8193C14.0893 77.7396 22.6175 87.223 33.3998 87.223H65.0706C81.646 87.223 94.7051 72.4784 91.3614 55.6337C89.3026 45.2882 80.7369 36.9911 70.1649 35.09H70.1499Z" fill="black"/>
</g>
<path style="mix-blend-mode:screen" d="M49.7644 89.4778C71.6129 89.4778 89.3246 74.6321 89.3246 56.319C89.3246 38.0059 71.6129 23.1602 49.7644 23.1602C27.9159 23.1602 10.2041 38.0059 10.2041 56.319C10.2041 74.6321 27.9159 89.4778 49.7644 89.4778Z" fill="url(#paint3_radial_176_5657)"/>
</g>
<defs>
<linearGradient id="paint0_linear_176_5657" x1="48.5915" y1="3.24785" x2="38.558" y2="87.3921" gradientUnits="userSpaceOnUse">
<stop stop-color="#FFF9E3"/>
<stop offset="1" stop-color="#F5B767"/>
</linearGradient>
<linearGradient id="paint1_linear_176_5657" x1="43.4922" y1="13.9413" x2="43.4922" y2="70.5102" gradientUnits="userSpaceOnUse">
<stop stop-color="#FFD461"/>
<stop offset="1" stop-color="#FF9822"/>
</linearGradient>
<linearGradient id="paint2_linear_176_5657" x1="64.2511" y1="48.8247" x2="64.2511" y2="98.9682" gradientUnits="userSpaceOnUse">
<stop stop-color="#EDF9FF"/>
<stop offset="0.19" stop-color="#E5F4FC"/>
<stop offset="0.47" stop-color="#D0E6F7"/>
<stop offset="0.82" stop-color="#ADD1ED"/>
<stop offset="1" stop-color="#99C4E8"/>
</linearGradient>
<radialGradient id="paint3_radial_176_5657" cx="0" cy="0" r="1" gradientUnits="userSpaceOnUse" gradientTransform="translate(51.6026 55.6418) scale(39.6482 33.0996)">
<stop offset="0.09" stop-color="#FFCC00"/>
<stop offset="0.28" stop-color="#FFB030"/>
<stop offset="0.36" stop-color="#D69428"/>
<stop offset="0.49" stop-color="#96671C"/>
<stop offset="0.62" stop-color="#604212"/>
<stop offset="0.74" stop-color="#36250A"/>
<stop offset="0.84" stop-color="#181104"/>
<stop offset="0.94" stop-color="#060401"/>
<stop offset="1"/>
</radialGradient>
</defs>
</svg>
