<svg width="47" height="48" viewBox="0 0 47 48" fill="none" xmlns="http://www.w3.org/2000/svg">
<g clip-path="url(#clip0_174_5024)">
<path d="M22.0283 0.383793C10.0306 0.387527 0.00679939 10.4242 0.00685336 22.4121C0.00687494 26.7339 1.29318 31.0032 3.69398 34.6124L0 44.4404L12.3697 42.2035C15.3914 43.6803 18.7094 44.4203 22.0283 44.4225C34.0363 44.4307 44.0695 34.4073 44.0695 22.4121C44.0695 10.4305 34.0327 0.376706 22.0283 0.383793Z" stroke="#6ABA48" stroke-width="1.6074" stroke-linecap="round" stroke-linejoin="round"/>
<path d="M23.2407 32.1137C26.2208 34.0268 29.3278 32.6334 31.4916 31.0196C32.9862 29.9049 32.9366 27.7549 31.66 26.3959L29.1428 23.7161C28.188 24.671 26.3272 25.1436 25.0344 24.7501C22.2555 23.9043 21.0892 22.4563 20.144 20.9839C19.0585 19.2929 20.2844 16.7673 21.2392 15.8125L18.4335 13.251C17.2506 12.1712 15.4539 11.989 14.4219 13.2138C12.3799 15.637 11.1099 19.3159 12.6139 21.6585C15.3138 25.8637 19.0353 29.4142 23.2407 32.1137Z" stroke="#6ABA48" stroke-width="1.6074" stroke-linecap="round" stroke-linejoin="round"/>
</g>
<defs>
<clipPath id="clip0_174_5024">
<rect width="47" height="47" fill="white" transform="translate(0 0.375)"/>
</clipPath>
</defs>
</svg>
